<svg width="14" height="16" viewBox="0 0 14 16" fill="none" xmlns="http://www.w3.org/2000/svg">
<path fill-rule="evenodd" clip-rule="evenodd" d="M7.00001 0.5C5.89494 0.5 4.83513 0.938987 4.05373 1.72039C3.27233 2.50179 2.83334 3.5616 2.83334 4.66667C2.83334 5.77174 3.27233 6.83154 4.05373 7.61294C4.1087 7.66791 4.16504 7.72119 4.22268 7.77273C3.50892 8.09981 2.85182 8.55343 2.28596 9.11929C1.03572 10.3695 0.333344 12.0652 0.333344 13.8333V14.6667C0.333344 15.1269 0.706439 15.5 1.16668 15.5C1.62691 15.5 2.00001 15.1269 2.00001 14.6667V13.8333C2.00001 12.5073 2.52679 11.2355 3.46448 10.2978C4.40216 9.36012 5.67393 8.83333 7.00001 8.83333C8.32609 8.83333 9.59786 9.36012 10.5355 10.2978C11.4732 11.2355 12 12.5073 12 13.8333V14.6667C12 15.1269 12.3731 15.5 12.8333 15.5C13.2936 15.5 13.6667 15.1269 13.6667 14.6667V13.8333C13.6667 12.0652 12.9643 10.3695 11.7141 9.11929C11.1482 8.55343 10.4911 8.09981 9.77733 7.77273C9.83498 7.72119 9.89132 7.66791 9.94629 7.61294C10.7277 6.83154 11.1667 5.77174 11.1667 4.66667C11.1667 3.5616 10.7277 2.50179 9.94629 1.72039C9.16489 0.938987 8.10508 0.5 7.00001 0.5ZM5.23224 2.8989C5.70108 2.43006 6.33697 2.16667 7.00001 2.16667C7.66305 2.16667 8.29894 2.43006 8.76778 2.8989C9.23662 3.36774 9.50001 4.00363 9.50001 4.66667C9.50001 5.32971 9.23662 5.96559 8.76778 6.43443C8.29894 6.90327 7.66305 7.16667 7.00001 7.16667C6.33697 7.16667 5.70108 6.90327 5.23224 6.43443C4.7634 5.96559 4.50001 5.32971 4.50001 4.66667C4.50001 4.00363 4.7634 3.36774 5.23224 2.8989Z" fill="#5C5E64"/>
</svg>
