<svg width="20" height="21" viewBox="0 0 20 21" fill="none" xmlns="http://www.w3.org/2000/svg">
<path d="M19.8689 10.978C19.8698 10.2966 19.8117 9.61637 19.6955 8.94479H10.1997V12.796H15.6385C15.5272 13.4111 15.2916 13.9974 14.946 14.5197C14.6004 15.0419 14.1518 15.4893 13.6274 15.8347V18.3346H16.8733C18.7739 16.5944 19.8689 14.0209 19.8689 10.978Z" fill="#4285F4"/>
<path d="M10.1997 20.75C12.9169 20.75 15.2049 19.8639 16.8733 18.3362L13.6274 15.8364C12.7239 16.4447 11.5604 16.7919 10.1997 16.7919C7.57328 16.7919 5.34408 15.0336 4.54693 12.6643H1.20312V15.2406C2.0412 16.8967 3.32629 18.2889 4.91494 19.2618C6.50358 20.2347 8.33324 20.7499 10.1997 20.75Z" fill="#34A853"/>
<path d="M4.54686 12.664C4.12543 11.4224 4.12543 10.0779 4.54686 8.83639V6.26013H1.20305C0.498032 7.65333 0.130859 9.19096 0.130859 10.7502C0.130859 12.3094 0.498032 13.847 1.20305 15.2402L4.54686 12.664Z" fill="#FBBC04"/>
<path d="M10.1997 4.70879C11.6356 4.68549 13.0231 5.22429 14.0623 6.20872L16.9362 3.35469C15.1139 1.65488 12.6996 0.721659 10.1997 0.750656C8.33324 0.750741 6.50358 1.26598 4.91494 2.23886C3.32629 3.21174 2.0412 4.60397 1.20312 6.2601L4.54693 8.83636C5.34408 6.46704 7.57328 4.70879 10.1997 4.70879Z" fill="#EA4335"/>
</svg>
