<svg width="18" height="17" viewBox="0 0 18 17" fill="none" xmlns="http://www.w3.org/2000/svg">
<path fill-rule="evenodd" clip-rule="evenodd" d="M8.99999 0.231445C8.2386 0.231445 7.49177 0.440069 6.84061 0.834657L2.67395 3.35966C2.06123 3.73095 1.55459 4.25397 1.20298 4.87819C0.851364 5.50241 0.666645 6.20675 0.666656 6.92318V12.1665C0.666656 13.2716 1.10564 14.3314 1.88704 15.1128C2.66845 15.8942 3.72825 16.3332 4.83332 16.3332H13.1667C14.2717 16.3332 15.3315 15.8942 16.1129 15.1128C16.8943 14.3314 17.3333 13.2716 17.3333 12.1665V6.92235C17.3332 6.20608 17.1484 5.50176 16.7967 4.87774C16.4451 4.25372 15.9386 3.73087 15.326 3.35966L11.1594 0.834664C10.5082 0.440076 9.76137 0.231445 8.99999 0.231445ZM7.70438 2.26003C8.09507 2.02328 8.54316 1.89811 8.99999 1.89811C9.45682 1.89811 9.90491 2.02328 10.2956 2.26003L14.4623 4.78503C14.8298 5.00776 15.1337 5.32147 15.3447 5.69589C15.5556 6.07025 15.6665 6.49266 15.6667 6.92235V12.1665C15.6667 12.8296 15.4033 13.4654 14.9344 13.9343C14.4656 14.4031 13.8297 14.6665 13.1667 14.6665H12.3333V12.1665C12.3333 11.2825 11.9821 10.4346 11.357 9.80949C10.7319 9.18437 9.88404 8.83318 8.99999 8.83318C8.11593 8.83318 7.26809 9.18437 6.64297 9.80949C6.01784 10.4346 5.66666 11.2825 5.66666 12.1665V14.6665H4.83332C4.17028 14.6665 3.5344 14.4031 3.06556 13.9343C2.59671 13.4654 2.33332 12.8296 2.33332 12.1665V6.92318C2.33331 6.49332 2.44415 6.07069 2.65512 5.69616C2.86609 5.32163 3.17006 5.00782 3.5377 4.78504L7.70438 2.26003ZM10.1785 10.988C10.4911 11.3006 10.6667 11.7245 10.6667 12.1665V14.6665H7.33332V12.1665C7.33332 11.7245 7.50892 11.3006 7.82148 10.988C8.13404 10.6754 8.55796 10.4999 8.99999 10.4999C9.44202 10.4999 9.86594 10.6754 10.1785 10.988Z" fill="#5C5E64"/>
</svg>
