<svg width="17" height="12" viewBox="0 0 17 12" fill="none" xmlns="http://www.w3.org/2000/svg">
<path d="M8.5 0.916664C4.86364 0.916664 1.75818 3.17848 0.5 6.37121C1.75818 9.56394 4.86364 11.8258 8.5 11.8258C12.1364 11.8258 15.2418 9.56394 16.5 6.37121C15.2418 3.17848 12.1364 0.916664 8.5 0.916664ZM8.5 10.0076C6.49273 10.0076 4.86364 8.37848 4.86364 6.37121C4.86364 4.36394 6.49273 2.73485 8.5 2.73485C10.5073 2.73485 12.1364 4.36394 12.1364 6.37121C12.1364 8.37848 10.5073 10.0076 8.5 10.0076ZM8.5 4.18939C7.29273 4.18939 6.31818 5.16394 6.31818 6.37121C6.31818 7.57848 7.29273 8.55303 8.5 8.55303C9.70727 8.55303 10.6818 7.57848 10.6818 6.37121C10.6818 5.16394 9.70727 4.18939 8.5 4.18939Z" fill="#4D4D4D"/>
</svg>
