<svg width="44" height="44" viewBox="0 0 44 44" fill="none" xmlns="http://www.w3.org/2000/svg">
<rect x="0.5" y="0.5" width="43" height="43" rx="4.5" fill="#F5F5F5"/>
<rect x="0.5" y="0.5" width="43" height="43" rx="4.5" stroke="#D9D3FB"/>
<path d="M36.8822 20.368H32.5897C31.5051 20.3626 30.4637 20.7953 29.6982 21.5693L23.1104 28.2068V13.8656C23.1057 13.1061 22.6473 12.4243 21.949 12.1383C21.2507 11.8522 20.4501 12.0184 19.9208 12.5591L12.7219 19.8123C12.3722 20.1702 11.8939 20.3706 11.3954 20.368H7.11784C6.50047 20.368 6 20.8722 6 21.4942C6 22.1163 6.50047 22.6205 7.11784 22.6205H11.3954C12.5124 22.6429 13.5897 22.2033 14.3763 21.4041L20.8449 14.7817V29.1229C20.8434 29.8801 21.2971 30.5628 21.9925 30.8498C22.218 30.9498 22.4617 31.0009 22.708 31C23.2016 31.0002 23.6744 30.7999 24.0196 30.4444L31.2781 23.1611C31.6275 22.8139 32.0989 22.6196 32.5897 22.6205H36.8822C37.4995 22.6205 38 22.1163 38 21.4942C38 20.8722 37.4995 20.368 36.8822 20.368Z" fill="black"/>
</svg>
