<svg width="18" height="18" viewBox="0 0 18 18" fill="none" xmlns="http://www.w3.org/2000/svg">
<path fill-rule="evenodd" clip-rule="evenodd" d="M12 0.666626C11.6464 0.666626 11.3072 0.807101 11.0572 1.05715C10.8071 1.3072 10.6667 1.64634 10.6667 1.99996V5.66662H6.99999C6.64637 5.66662 6.30723 5.8071 6.05718 6.05715C5.80713 6.3072 5.66666 6.64634 5.66666 6.99996V11.5H1.99999C1.64637 11.5 1.30723 11.6404 1.05718 11.8905C0.807131 12.1405 0.666656 12.4797 0.666656 12.8333V16C0.666656 16.3536 0.807131 16.6927 1.05718 16.9428C1.30723 17.1928 1.64637 17.3333 1.99999 17.3333H16C16.3536 17.3333 16.6927 17.1928 16.9428 16.9428C17.1928 16.6927 17.3333 16.3536 17.3333 16V1.99996C17.3333 1.64634 17.1928 1.3072 16.9428 1.05715C16.6927 0.807101 16.3536 0.666626 16 0.666626H12ZM7.33332 7.33329H10.6667V15.6666H7.33332V7.33329ZM15.6667 15.6666H12.3333V2.33329H15.6667V15.6666ZM5.66666 13.1666V15.6666H2.33332V13.1666H5.66666Z" fill="#5C5E64"/>
</svg>
