<svg width="18" height="19" viewBox="0 0 18 19" fill="none" xmlns="http://www.w3.org/2000/svg">
<path fill-rule="evenodd" clip-rule="evenodd" d="M5.66666 1.66671C5.66666 1.20647 5.29356 0.833374 4.83332 0.833374C4.37309 0.833374 3.99999 1.20647 3.99999 1.66671V2.50004H3.16666C2.50362 2.50004 1.86773 2.76343 1.39889 3.23227C0.930048 3.70111 0.666656 4.337 0.666656 5.00004V15.8334C0.666656 16.4964 0.930049 17.1323 1.39889 17.6011C1.86773 18.07 2.50361 18.3334 3.16666 18.3334H14.8333C15.4964 18.3334 16.1322 18.07 16.6011 17.6011C17.0699 17.1323 17.3333 16.4964 17.3333 15.8334V5.00004C17.3333 4.337 17.0699 3.70111 16.6011 3.23227C16.1322 2.76343 15.4964 2.50004 14.8333 2.50004H14.4167C13.9564 2.50004 13.5833 2.87314 13.5833 3.33337C13.5833 3.79361 13.9564 4.16671 14.4167 4.16671H14.8333C15.0543 4.16671 15.2663 4.2545 15.4226 4.41079C15.5789 4.56707 15.6667 4.77903 15.6667 5.00004V7.50004H2.33332V5.00004C2.33332 4.77903 2.42112 4.56707 2.5774 4.41079C2.73368 4.2545 2.94564 4.16671 3.16666 4.16671H3.99999V5.00004C3.99999 5.46028 4.37309 5.83337 4.83332 5.83337C5.29356 5.83337 5.66666 5.46028 5.66666 5.00004V1.66671ZM2.5774 16.4226C2.42112 16.2663 2.33332 16.0544 2.33332 15.8334V9.16671H15.6667V15.8334C15.6667 16.0544 15.5789 16.2663 15.4226 16.4226C15.2663 16.5789 15.0543 16.6667 14.8333 16.6667H3.16666C2.94564 16.6667 2.73368 16.5789 2.5774 16.4226Z" fill="#5C5E64"/>
<path d="M12.3333 1.66671C12.3333 1.20647 11.9602 0.833374 11.5 0.833374C11.0398 0.833374 10.6667 1.20647 10.6667 1.66671V2.50004H7.74999C7.28975 2.50004 6.91666 2.87314 6.91666 3.33337C6.91666 3.79361 7.28975 4.16671 7.74999 4.16671H10.6667V5.00004C10.6667 5.46028 11.0398 5.83337 11.5 5.83337C11.9602 5.83337 12.3333 5.46028 12.3333 5.00004V1.66671Z" fill="#5C5E64"/>
</svg>
