<svg width="44" height="44" viewBox="0 0 44 44" fill="none" xmlns="http://www.w3.org/2000/svg">
<rect width="44" height="44" rx="5" fill="#F5F5F5"/>
<path fill-rule="evenodd" clip-rule="evenodd" d="M14.9767 8.00291H28.9567C30.7832 7.95005 32.5553 8.61902 33.8783 9.86081C35.2013 11.1026 35.9652 12.8141 36 14.614V24.5699C35.8912 28.2701 32.78 31.1947 29.0233 31.1285H26.8664C26.3242 31.1299 25.8112 31.3706 25.4684 31.7844L23.4313 34.3422C23.09 34.7582 22.5762 35 22.0333 35C21.4904 35 20.9765 34.7582 20.6353 34.3422L18.5316 31.7319C18.1888 31.3181 17.6758 31.0774 17.1336 31.076H14.9767C11.22 31.1423 8.10884 28.2176 8 24.5174V14.5615C8.10168 10.8582 11.2171 7.92948 14.9767 8.00291ZM28.97 29.1609C31.6442 29.2271 33.8698 27.1517 33.9496 24.5174V14.614C33.8699 11.9745 31.636 9.89697 28.9567 9.97049H14.9767C12.2974 9.89697 10.0636 11.9745 9.98383 14.614V24.5174C10.0636 27.1569 12.2974 29.2344 14.9767 29.1609H17.1336C18.2881 29.1612 19.3801 29.6774 20.1027 30.5645L21.9667 32.8993L23.8307 30.5645C24.5533 29.6774 25.6453 29.1612 26.7998 29.1609H28.97Z" fill="#5C5E64"/>
<path d="M16.9738 17.1325C16.4223 17.1325 15.9753 17.5729 15.9753 18.1163V21.2644C15.9753 21.8077 16.4223 22.2482 16.9738 22.2482C17.5253 22.2482 17.9724 21.8077 17.9724 21.2644V18.1163C17.9724 17.5729 17.5253 17.1325 16.9738 17.1325Z" fill="#5C5E64"/>
<path d="M21.9667 17.1325C21.4152 17.1325 20.9681 17.5729 20.9681 18.1163V21.2644C20.9681 21.8077 21.4152 22.2482 21.9667 22.2482C22.5182 22.2482 22.9653 21.8077 22.9653 21.2644V18.1163C22.9653 17.5729 22.5182 17.1325 21.9667 17.1325Z" fill="#5C5E64"/>
<path d="M26.9596 17.1325C26.4081 17.1325 25.961 17.5729 25.961 18.1163V21.2644C25.961 21.8077 26.4081 22.2482 26.9596 22.2482C27.5111 22.2482 27.9582 21.8077 27.9582 21.2644V18.1163C27.9582 17.5729 27.5111 17.1325 26.9596 17.1325Z" fill="#5C5E64"/>
</svg>
